<?xml version="1.0" encoding="utf-8"?>
<!-- Generator: Adobe Illustrator 22.0.0, SVG Export Plug-In . SVG Version: 6.00 Build 0)  -->
<svg version="1.1" id="Layer_1" xmlns="http://www.w3.org/2000/svg" xmlns:xlink="http://www.w3.org/1999/xlink" x="0px" y="0px"
	 viewBox="0 0 409.1 76.9" style="enable-background:new 0 0 409.1 76.9;" xml:space="preserve">
<style type="text/css">
	.st0{fill:#FFFFFF;}
	.st1{fill:#01C39A;}
</style>
<g>
	<g>
		<path class="st0" d="M107,27.5c2,1.1,3.6,2.7,4.8,4.8l-4,2.8c-1.8-2.9-4.3-4.4-7.5-4.4c-2.5,0-4.5,0.8-6.1,2.4
			c-1.6,1.6-2.4,3.7-2.4,6.2c0,2.5,0.8,4.6,2.4,6.2s3.6,2.4,6.1,2.4c3.1,0,5.6-1.5,7.5-4.4l4,2.8c-1.1,2-2.7,3.6-4.7,4.8
			c-2,1.1-4.3,1.7-6.8,1.7c-3.9,0-7.2-1.3-9.9-3.9c-2.7-2.6-4-5.8-4-9.6c0-3.8,1.3-7,4-9.6c2.7-2.6,6-3.9,9.9-3.9
			C102.7,25.8,105,26.4,107,27.5z"/>
		<path class="st0" d="M121.7,47.6h11.4v4.8h-16.8V26.3h5.3V47.6z"/>
		<path class="st0" d="M158.7,29.7c2.7,2.6,4.1,5.8,4.1,9.6c0,3.8-1.4,7-4.1,9.6s-6,3.9-9.9,3.9c-3.9,0-7.1-1.3-9.8-3.9
			c-2.7-2.6-4-5.8-4-9.6c0-3.8,1.3-7,4-9.6c2.7-2.6,6-3.9,9.8-3.9C152.7,25.8,155.9,27.1,158.7,29.7z M142.8,33.2
			c-1.6,1.6-2.4,3.7-2.4,6.2c0,2.5,0.8,4.6,2.4,6.2s3.6,2.4,6,2.4c2.4,0,4.4-0.8,6-2.4s2.4-3.7,2.4-6.2s-0.8-4.6-2.4-6.2
			c-1.6-1.6-3.6-2.4-6-2.4C146.4,30.8,144.4,31.6,142.8,33.2z"/>
		<path class="st0" d="M189.2,41.6c0,3.4-1,6.2-3.1,8.2c-2.1,2-4.7,3.1-8,3.1c-3.2,0-5.9-1-8-3.1c-2.1-2-3.1-4.8-3.1-8.2V26.3h5.3
			V42c0,1.9,0.5,3.4,1.6,4.4s2.4,1.5,4.1,1.5c1.7,0,3.1-0.5,4.2-1.5c1.1-1,1.6-2.5,1.6-4.4V26.3h5.3V41.6z"/>
		<path class="st0" d="M213.8,29.9c2.6,2.4,4,5.5,4,9.4c0,3.9-1.3,7-4,9.5c-2.7,2.5-6.1,3.7-10.3,3.7h-8.5V26.3h8.5
			C207.7,26.3,211.1,27.5,213.8,29.9z M200.3,31.1v16.5h3.2c2.6,0,4.8-0.8,6.4-2.3c1.6-1.5,2.4-3.5,2.4-6c0-2.5-0.8-4.5-2.4-6
			c-1.6-1.5-3.7-2.2-6.4-2.2H200.3z"/>
		<path class="st0" d="M249.3,52.4l-6.8-9.2h-3.9v9.2h-5.3V26.3h9.8c2.8,0,5,0.8,6.8,2.3c1.8,1.5,2.6,3.6,2.6,6.1
			c0,1.7-0.4,3.1-1.2,4.4c-0.8,1.3-1.9,2.3-3.4,3l7.4,10.3H249.3z M238.6,38.5h4.5c1.2,0,2.2-0.3,2.9-1c0.7-0.7,1-1.6,1-2.7
			c0-1.1-0.4-2-1.1-2.7c-0.7-0.7-1.7-1-2.9-1h-4.5V38.5z"/>
		<path class="st0" d="M276.2,31.1H264v5.3h9V41h-9v6.6h12.7v4.8h-18V26.3h17.6V31.1z"/>
		<path class="st0" d="M296.7,49H286l-1.5,3.4h-5.7l11.7-26.6h1.8l11.6,26.6h-5.7L296.7,49z M291.3,35.8l-3.4,8.8h6.9L291.3,35.8z"
			/>
		<path class="st0" d="M326,27.5c2,1.1,3.6,2.7,4.8,4.8l-4,2.8c-1.8-2.9-4.3-4.4-7.5-4.4c-2.5,0-4.5,0.8-6.1,2.4
			c-1.6,1.6-2.4,3.7-2.4,6.2c0,2.5,0.8,4.6,2.4,6.2c1.6,1.6,3.6,2.4,6.1,2.4c3.1,0,5.6-1.5,7.5-4.4l4,2.8c-1.1,2-2.7,3.6-4.7,4.8
			c-2,1.1-4.3,1.7-6.8,1.7c-3.9,0-7.2-1.3-9.9-3.9c-2.7-2.6-4-5.8-4-9.6c0-3.8,1.3-7,4-9.6c2.7-2.6,6-3.9,9.9-3.9
			C321.7,25.8,324,26.4,326,27.5z"/>
		<path class="st0" d="M354.9,31.1h-8.4v21.3h-5.3V31.1h-8.3v-4.8h22.1V31.1z"/>
		<path class="st0" d="M380,29.7c2.7,2.6,4.1,5.8,4.1,9.6c0,3.8-1.4,7-4.1,9.6c-2.7,2.6-6,3.9-9.9,3.9c-3.9,0-7.1-1.3-9.8-3.9
			s-4-5.8-4-9.6c0-3.8,1.3-7,4-9.6c2.7-2.6,6-3.9,9.8-3.9C374,25.8,377.3,27.1,380,29.7z M364.2,33.2c-1.6,1.6-2.4,3.7-2.4,6.2
			c0,2.5,0.8,4.6,2.4,6.2s3.6,2.4,6,2.4c2.4,0,4.4-0.8,6-2.4s2.4-3.7,2.4-6.2s-0.8-4.6-2.4-6.2c-1.6-1.6-3.6-2.4-6-2.4
			C367.8,30.8,365.8,31.6,364.2,33.2z"/>
		<path class="st0" d="M404.6,52.4l-6.8-9.2H394v9.2h-5.3V26.3h9.8c2.8,0,5,0.8,6.8,2.3c1.8,1.5,2.6,3.6,2.6,6.1
			c0,1.7-0.4,3.1-1.2,4.4c-0.8,1.3-1.9,2.3-3.4,3l7.4,10.3H404.6z M394,38.5h4.5c1.2,0,2.2-0.3,2.9-1c0.7-0.7,1-1.6,1-2.7
			c0-1.1-0.4-2-1.1-2.7c-0.7-0.7-1.7-1-2.9-1H394V38.5z"/>
	</g>
	<polygon class="st1" points="25.9,17.4 25.9,17.4 32.9,21.5 44.5,28.2 44.5,28.2 51.6,32.3 51.6,26.5 25.9,11.6 25.9,11.6 
		25.9,11.6 20.8,14.5 	"/>
	<polygon class="st1" points="35.9,71.1 15.2,59.1 15.2,23.6 20.8,20.3 15.8,17.4 10.1,20.7 10.1,62 35.9,76.9 61.7,62 61.7,56.2 	
		"/>
	<polygon class="st1" points="56.6,30.1 61.7,27.2 61.7,20.7 25.9,0 0.1,14.9 0.1,44.6 5.1,47.5 5.1,17.8 25.9,5.8 56.6,23.6 	"/>
	<polygon class="st1" points="56.6,35.9 56.6,35.9 30.9,50.8 35.9,53.7 61.7,38.8 61.7,33 	"/>
	<polygon class="st1" points="25.2,31.8 25.2,31.8 25.2,23.6 20.2,26.5 20.2,50.4 20.2,50.4 20.2,56.2 25.2,59.1 	"/>
	<polygon class="st1" points="45.9,0 40.9,2.9 66.7,17.8 66.7,30.1 66.7,30.1 66.7,35.9 66.7,35.9 66.7,41.7 35.9,59.5 30.2,56.2 
		30.2,62 35.9,65.3 71.7,44.6 71.7,14.9 	"/>
</g>
</svg>
