<?xml version="1.0" encoding="utf-8"?>
<!-- Generator: Adobe Illustrator 22.0.0, SVG Export Plug-In . SVG Version: 6.00 Build 0)  -->
<svg version="1.1" id="Layer_1" xmlns="http://www.w3.org/2000/svg" xmlns:xlink="http://www.w3.org/1999/xlink" x="0px" y="0px"
	 viewBox="0 0 410.5 76.9" style="enable-background:new 0 0 410.5 76.9;" xml:space="preserve">
<style type="text/css">
	.st0{fill:#264654;}
	.st1{fill:#01C39A;}
</style>
<g>
	<g>
		<path class="st0" d="M106.9,27.5c2,1.1,3.6,2.7,4.8,4.8l-4,2.8c-1.8-2.9-4.3-4.4-7.5-4.4c-2.5,0-4.5,0.8-6.1,2.4
			c-1.6,1.6-2.4,3.7-2.4,6.2c0,2.5,0.8,4.6,2.4,6.2c1.6,1.6,3.6,2.4,6.1,2.4c3.1,0,5.6-1.5,7.5-4.4l4,2.8c-1.1,2-2.7,3.6-4.7,4.8
			c-2,1.1-4.3,1.7-6.8,1.7c-3.9,0-7.2-1.3-9.9-3.9s-4-5.8-4-9.6c0-3.8,1.3-7,4-9.6c2.7-2.6,6-3.9,9.9-3.9
			C102.7,25.8,104.9,26.4,106.9,27.5z"/>
		<path class="st0" d="M121.6,47.6H133v4.8h-16.8V26.3h5.3V47.6z"/>
		<path class="st0" d="M158.6,29.7c2.7,2.6,4.1,5.8,4.1,9.6c0,3.8-1.4,7-4.1,9.6s-6,3.9-9.9,3.9s-7.1-1.3-9.8-3.9
			c-2.7-2.6-4-5.8-4-9.6c0-3.8,1.3-7,4-9.6c2.7-2.6,6-3.9,9.8-3.9S155.8,27.1,158.6,29.7z M142.7,33.2c-1.6,1.6-2.4,3.7-2.4,6.2
			c0,2.5,0.8,4.6,2.4,6.2s3.6,2.4,6,2.4c2.4,0,4.4-0.8,6-2.4c1.6-1.6,2.4-3.7,2.4-6.2s-0.8-4.6-2.4-6.2c-1.6-1.6-3.6-2.4-6-2.4
			C146.3,30.8,144.3,31.6,142.7,33.2z"/>
		<path class="st0" d="M189.1,41.6c0,3.4-1,6.2-3.1,8.2c-2.1,2-4.7,3.1-8,3.1c-3.2,0-5.9-1-8-3.1c-2.1-2-3.1-4.8-3.1-8.2V26.3h5.3
			V42c0,1.9,0.5,3.4,1.6,4.4s2.4,1.5,4.1,1.5c1.7,0,3.1-0.5,4.2-1.5s1.6-2.5,1.6-4.4V26.3h5.3V41.6z"/>
		<path class="st0" d="M213.7,29.9c2.6,2.4,4,5.5,4,9.4c0,3.9-1.3,7-4,9.5s-6.1,3.7-10.3,3.7h-8.5V26.3h8.5
			C207.6,26.3,211,27.5,213.7,29.9z M200.2,31.1v16.5h3.2c2.6,0,4.8-0.8,6.4-2.3s2.4-3.5,2.4-6c0-2.5-0.8-4.5-2.4-6
			c-1.6-1.5-3.7-2.2-6.4-2.2H200.2z"/>
		<path class="st0" d="M249.2,52.4l-6.8-9.2h-3.9v9.2h-5.3V26.3h9.8c2.8,0,5,0.8,6.8,2.3c1.8,1.5,2.6,3.6,2.6,6.1
			c0,1.7-0.4,3.1-1.2,4.4c-0.8,1.3-1.9,2.3-3.4,3l7.4,10.3H249.2z M238.5,38.5h4.5c1.2,0,2.2-0.3,2.9-1c0.7-0.7,1-1.6,1-2.7
			c0-1.1-0.4-2-1.1-2.7c-0.7-0.7-1.7-1-2.9-1h-4.5V38.5z"/>
		<path class="st0" d="M276.1,31.1h-12.2v5.3h9V41h-9v6.6h12.7v4.8h-18V26.3h17.6V31.1z"/>
		<path class="st0" d="M296.6,49h-10.7l-1.5,3.4h-5.7l11.7-26.6h1.8l11.6,26.6H298L296.6,49z M291.2,35.8l-3.4,8.8h6.9L291.2,35.8z"
			/>
		<path class="st0" d="M325.9,27.5c2,1.1,3.6,2.7,4.8,4.8l-4,2.8c-1.8-2.9-4.3-4.4-7.5-4.4c-2.5,0-4.5,0.8-6.1,2.4
			c-1.6,1.6-2.4,3.7-2.4,6.2c0,2.5,0.8,4.6,2.4,6.2c1.6,1.6,3.6,2.4,6.1,2.4c3.1,0,5.6-1.5,7.5-4.4l4,2.8c-1.1,2-2.7,3.6-4.7,4.8
			c-2,1.1-4.3,1.7-6.8,1.7c-3.9,0-7.2-1.3-9.9-3.9c-2.7-2.6-4-5.8-4-9.6c0-3.8,1.3-7,4-9.6c2.7-2.6,6-3.9,9.9-3.9
			C321.6,25.8,323.9,26.4,325.9,27.5z"/>
		<path class="st0" d="M354.8,31.1h-8.4v21.3h-5.3V31.1h-8.3v-4.8h22.1V31.1z"/>
		<path class="st0" d="M379.9,29.7c2.7,2.6,4.1,5.8,4.1,9.6c0,3.8-1.4,7-4.1,9.6c-2.7,2.6-6,3.9-9.9,3.9c-3.9,0-7.1-1.3-9.8-3.9
			s-4-5.8-4-9.6c0-3.8,1.3-7,4-9.6c2.7-2.6,6-3.9,9.8-3.9C373.9,25.8,377.2,27.1,379.9,29.7z M364.1,33.2c-1.6,1.6-2.4,3.7-2.4,6.2
			c0,2.5,0.8,4.6,2.4,6.2s3.6,2.4,6,2.4c2.4,0,4.4-0.8,6-2.4s2.4-3.7,2.4-6.2s-0.8-4.6-2.4-6.2c-1.6-1.6-3.6-2.4-6-2.4
			C367.7,30.8,365.7,31.6,364.1,33.2z"/>
		<path class="st0" d="M404.5,52.4l-6.8-9.2h-3.9v9.2h-5.3V26.3h9.8c2.8,0,5,0.8,6.8,2.3c1.8,1.5,2.6,3.6,2.6,6.1
			c0,1.7-0.4,3.1-1.2,4.4c-0.8,1.3-1.9,2.3-3.4,3l7.4,10.3H404.5z M393.9,38.5h4.5c1.2,0,2.2-0.3,2.9-1c0.7-0.7,1-1.6,1-2.7
			c0-1.1-0.4-2-1.1-2.7c-0.7-0.7-1.7-1-2.9-1h-4.5V38.5z"/>
	</g>
	<polygon class="st1" points="25.8,17.4 25.8,17.4 32.8,21.5 44.4,28.2 44.4,28.2 51.5,32.3 51.5,26.5 25.8,11.6 25.8,11.6 
		25.8,11.6 20.7,14.5 	"/>
	<polygon class="st1" points="35.8,71.1 15.1,59.1 15.1,23.6 20.7,20.3 15.7,17.4 10,20.7 10,62 35.8,76.9 61.6,62 61.6,56.2 	"/>
	<polygon class="st1" points="56.5,30.1 61.6,27.2 61.6,20.7 25.8,0 0,14.9 0,44.6 5,47.5 5,17.8 25.8,5.8 56.5,23.6 	"/>
	<polygon class="st1" points="56.5,35.9 56.5,35.9 30.8,50.8 35.8,53.7 61.6,38.8 61.6,33 	"/>
	<polygon class="st1" points="25.1,31.8 25.1,31.8 25.1,23.6 20.1,26.5 20.1,50.4 20.1,50.4 20.1,56.2 25.1,59.1 	"/>
	<polygon class="st1" points="45.8,0 40.8,2.9 66.6,17.8 66.6,30.1 66.6,30.1 66.6,35.9 66.6,35.9 66.6,41.7 35.8,59.5 30.1,56.2 
		30.1,62 35.8,65.3 71.6,44.6 71.6,14.9 	"/>
</g>
</svg>
