<svg version="1.1" id="Layer_1" xmlns="http://www.w3.org/2000/svg" x="0" y="0" viewBox="0 0 76.9 76.9" xml:space="preserve">
  <style>
    .cloudreactorlogo{fill:#01c39a}
  </style>
  <path class="cloudreactorlogo" d="M25.9 17.4l7 4.1 11.6 6.7 7.1 4.1v-5.8L25.9 11.6l-5.1 2.9zM35.9 71.1l-20.7-12V23.6l5.6-3.3-5-2.9-5.7 3.3V62l25.8 14.9L61.7 62v-5.8z"/>
  <path class="cloudreactorlogo" d="M56.6 30.1l5.1-2.9v-6.5L25.9 0 .1 14.9v29.7l5 2.9V17.8l20.8-12 30.7 17.8zM56.6 35.9L30.9 50.8l5 2.9 25.8-14.9V33z"/>
  <path class="cloudreactorlogo" d="M25.2 31.8v-8.2l-5 2.9v29.7l5 2.9zM45.9 0l-5 2.9 25.8 14.9V41.7L35.9 59.5l-5.7-3.3V62l5.7 3.3 35.8-20.7V14.9z"/>
</svg>